<svg width="18" height="20" viewBox="0 0 18 20" fill="none" xmlns="http://www.w3.org/2000/svg">
<path d="M9 0L9.66436 -0.747409L9 -1.33795L8.33564 -0.747409L9 0ZM18 8H19V7.55093L18.6644 7.25259L18 8ZM0 8L-0.664364 7.25259L-1 7.55093V8H0ZM0 20H-1V21H0V20ZM7 20V21H8V20H7ZM7 13V12H6V13H7ZM11 13H12V12H11V13ZM11 20H10V21H11V20ZM18 20V21H19V20H18ZM8.33564 0.747409L17.3356 8.74741L18.6644 7.25259L9.66436 -0.747409L8.33564 0.747409ZM0.664364 8.74741L9.66436 0.747409L8.33564 -0.747409L-0.664364 7.25259L0.664364 8.74741ZM1 20V8H-1V20H1ZM7 19H0V21H7V19ZM8 20V13H6V20H8ZM7 14H11V12H7V14ZM10 13V20H12V13H10ZM18 19H11V21H18V19ZM17 8V20H19V8H17Z" fill="#767676"/>
</svg>
