<svg viewBox="0 0 34 34" version="1.1" xmlns="http://www.w3.org/2000/svg" xmlns:xlink="http://www.w3.org/1999/xlink">
  <g id="Assets" stroke="none" stroke-width="1" fill="none" fill-rule="evenodd">
    <g id="Home" transform="translate(-968.000000, -109.000000)">
      <g id="icon-vertical" transform="translate(985.000000, 126.000000) scale(-1, 1) rotate(270.000000) translate(-985.000000, -126.000000) translate(968.000000, 109.000000)" fill="#8186D5">
        <path d="M20,-7.10542736e-15 C22.209139,-7.10542736e-15 24,1.79274905 24,4.00421708 L24,29.9957829 C24,32.2072509 22.209139,34 20,34 L4,34 C1.79086091,34 3.55271368e-15,32.2072509 3.55271368e-15,29.9957829 L0,4.00421708 C0,1.79274905 1.79086091,-7.10542736e-15 4,-7.10542736e-15 L20,-7.10542736e-15 Z M20,2.66947805 L3.99999992,2.66947805 C3.26362025,2.66947805 2.66666658,3.26706107 2.66666658,4.00421708 L2.66666658,29.9957829 C2.66666658,30.7329389 3.26362025,31.3305219 3.99999992,31.3305219 L20,31.3305219 C20.7363797,31.3305219 21.3333333,30.7329389 21.3333333,29.9957829 L21.3333333,4.00421708 C21.3333333,3.26706107 20.7363797,2.66947805 20,2.66947805 Z M11.0571909,26.3825018 C11.57789,25.8612538 12.4221099,25.8612538 12.942809,26.3825018 C13.4635081,26.9037499 13.4635081,27.7488599 12.942809,28.2701079 C12.4221099,28.7913559 11.57789,28.7913559 11.0571909,28.2701079 C10.5364918,27.7488599 10.5364918,26.9037499 11.0571909,26.3825018 Z" id="Shape"></path>
        <path d="M17,27 L17,19.3554218 C17,18.0545583 18.7908609,17 21,17 L37,17 C39.209139,17 41,18.0545583 41,19.3554218 L41,27 L17,27 Z M38,27 L38,19.7451168 C38,19.3336001 37.3923864,19 36.6428571,19 L20.3571429,19 C19.6076136,19 19,19.3336001 19,19.7451168 L19,27 L38,27 Z" id="Shape-Copy" fill-opacity="0.2" transform="translate(29.000000, 22.000000) rotate(90.000000) translate(-29.000000, -22.000000) "></path>
      </g>
    </g>
  </g>
</svg>