<svg viewBox="0 0 26 26" version="1.1" xmlns="http://www.w3.org/2000/svg" xmlns:xlink="http://www.w3.org/1999/xlink">
  <path transform="translate(-32, -8), scale(.8,.8)" d="M46.4,22 C49.9346224,22 52.8,24.8653776 52.8,28.4 C52.8,31.3554257 50.7967466,33.8429664 48.0740169,34.5788451 C48.7118268,40.5463797 53.4536204,45.2881733 59.4226879,45.9267637 C60.1570336,43.2032534 62.6445744,41.2 65.6,41.2 C69.1346224,41.2 72.0000001,44.0653776 72.0000001,47.6 C72.0000001,51.1346224 69.1346224,54.0000001 65.6,54.0000001 C62.5953923,54.0000001 60.0743714,51.9295185 59.3858782,49.137496 C54.734506,48.7311702 50.6534455,46.3332753 48,42.8015599 L48,42.8015599 L48,52.4000001 C48,53.2836557 47.2836556,54.0000001 46.4,54.0000001 C45.5163444,54.0000001 44.8,53.2836557 44.8,52.4000001 L44.8,52.4000001 L44.8002887,34.5984463 C42.0397787,33.8880783 40,31.3822471 40,28.4 C40,24.8653776 42.8653776,22 46.4,22 Z M65.6,44.4 C63.8326888,44.4 62.4,45.8326888 62.4,47.6 C62.4,49.3673112 63.8326888,50.8 65.6,50.8 C67.3673112,50.8 68.8,49.3673112 68.8,47.6 C68.8,45.8326888 67.3673112,44.4 65.6,44.4 Z M46.4,25.2 C44.6326888,25.2 43.2,26.6326888 43.2,28.4 C43.2,30.1673112 44.6326888,31.6 46.4,31.6 C48.1673112,31.6 49.6,30.1673112 49.6,28.4 C49.6,26.6326888 48.1673112,25.2 46.4,25.2 Z" id="Shape" fill="#494CA2"></path>
</svg>